<svg version="1.1" id="Layer_1" xmlns="http://www.w3.org/2000/svg" xmlns:xlink="http://www.w3.org/1999/xlink" x="0px" y="0px"
	 width="100%" viewBox="0 0 512 512" enable-background="new 0 0 512 512" xml:space="preserve">
<path fill="#27EF9F" opacity="1.000000" stroke="none" 
	d="
M513.000000,50.000000 
	C513.000000,52.041668 513.000000,54.083332 512.531372,56.562614 
	C498.763947,57.000534 485.465179,57.000839 472.089111,56.640472 
	C467.987457,44.783325 459.034698,41.013512 447.810516,41.011818 
	C320.927307,40.992676 194.044083,41.001289 67.160873,40.997288 
	C53.717411,40.996864 42.933231,45.804852 41.644726,60.768139 
	C41.607738,61.197659 41.114113,61.587864 40.375191,61.996792 
	C26.944651,61.998119 13.972325,61.999062 1.000000,62.000000 
	C1.000000,58.307091 1.000000,54.614182 1.350144,50.288769 
	C4.428727,42.756935 7.157166,35.857605 10.361511,28.967117 
	C175.263077,28.970070 339.688751,28.964178 504.417908,29.135208 
	C507.480957,36.208084 510.240479,43.104038 513.000000,50.000000 
z"/>
<path fill="#019FFB" opacity="1.000000" stroke="none" 
	d="
M464.000000,513.000000 
	C326.309998,513.000000 188.620026,513.000000 50.304535,512.641357 
	C39.694122,510.582062 30.874996,506.322235 23.294426,499.870911 
	C25.274296,499.424561 26.907146,499.027252 28.540071,499.026947 
	C180.792084,498.998535 333.044128,498.996307 485.296143,499.046265 
	C487.213898,499.046906 489.131500,499.739410 490.887390,500.413788 
	C488.418396,502.157288 486.244965,503.904358 483.777985,504.974915 
	C477.253204,507.806335 470.601318,510.344879 464.000000,513.000000 
z"/>
<path fill="#2AF499" opacity="1.000000" stroke="none" 
	d="
M50.000000,1.000001 
	C187.689987,1.000000 325.379974,1.000000 463.706818,1.350128 
	C469.913239,3.765159 475.482819,5.830063 480.705322,8.129271 
	C478.725372,8.575500 477.092529,8.972691 475.459595,8.973010 
	C329.874420,9.001509 184.289230,9.003759 38.704075,8.953581 
	C36.786324,8.952920 34.868813,8.260531 33.130867,7.585073 
	C38.873699,5.186092 44.436852,3.093047 50.000000,1.000001 
z"/>
<path fill="#14C8CC" opacity="1.000000" stroke="none" 
	d="
M513.000000,234.000000 
	C513.000000,255.354233 513.000000,276.708466 512.531372,298.531342 
	C499.097412,299.001343 486.132141,299.002686 473.096466,298.539734 
	C473.073029,276.717926 473.119995,255.360382 473.625122,234.002182 
	C487.055542,234.001007 500.027771,234.000504 513.000000,234.000000 
z"/>
<path fill="#1BD6BC" opacity="1.000000" stroke="none" 
	d="
M1.000000,215.000000 
	C1.000000,193.979111 1.000000,172.958206 1.468657,151.468750 
	C14.902431,151.000977 27.867548,151.001770 40.899391,151.466858 
	C40.921959,172.955093 40.877800,193.979019 40.375412,215.002289 
	C26.944788,215.001068 13.972394,215.000534 1.000000,215.000000 
z"/>
<path fill="#0FBDD9" opacity="1.000000" stroke="none" 
	d="
M473.166870,299.004028 
	C486.132141,299.002686 499.097412,299.001343 512.531372,299.000000 
	C513.000000,320.020905 513.000000,341.041779 512.531372,362.531342 
	C499.097168,363.001617 486.131653,363.003235 473.094971,362.540649 
	C473.071472,341.052307 473.119171,320.028168 473.166870,299.004028 
z"/>
<path fill="#16CBC9" opacity="1.000000" stroke="none" 
	d="
M1.000000,215.468658 
	C13.972394,215.000534 26.944788,215.001068 40.441845,215.466629 
	C40.922260,236.955673 40.878017,257.979706 40.375534,279.002930 
	C26.944864,279.001404 13.972432,279.000702 1.000000,279.000000 
	C1.000000,257.979095 1.000000,236.958206 1.000000,215.468658 
z"/>
<path fill="#1AD3C0" opacity="1.000000" stroke="none" 
	d="
M513.000000,233.531342 
	C500.027771,234.000504 487.055542,234.001007 473.555450,233.537903 
	C473.073822,212.050385 473.120026,191.026474 473.624481,170.001999 
	C487.055145,170.000961 500.027557,170.000473 513.000000,170.000000 
	C513.000000,191.020889 513.000000,212.041794 513.000000,233.531342 
z"/>
<path fill="#11C0D5" opacity="1.000000" stroke="none" 
	d="
M1.000000,279.468658 
	C13.972432,279.000702 26.944864,279.001404 40.441841,279.467224 
	C40.922020,300.623047 40.877659,321.313812 40.375084,342.003571 
	C26.944586,342.001740 13.972293,342.000885 1.000000,342.000000 
	C1.000000,321.312439 1.000000,300.624878 1.000000,279.468658 
z"/>
<path fill="#1FDEB3" opacity="1.000000" stroke="none" 
	d="
M513.000000,169.531342 
	C500.027557,170.000473 487.055145,170.000961 473.555634,169.537598 
	C473.074493,149.049744 473.120392,129.025742 473.624542,109.001404 
	C487.055176,109.000725 500.027588,109.000366 513.000000,109.000000 
	C513.000000,129.020889 513.000000,149.041794 513.000000,169.531342 
z"/>
<path fill="#0BB6E2" opacity="1.000000" stroke="none" 
	d="
M1.000000,342.468658 
	C13.972293,342.000885 26.944586,342.001740 40.441460,342.467834 
	C40.921925,362.623444 40.877804,382.313812 40.375450,402.003235 
	C26.944815,402.001495 13.972407,402.000732 1.000000,402.000000 
	C1.000000,382.312439 1.000000,362.624878 1.000000,342.468658 
z"/>
<path fill="#0AB2E6" opacity="1.000000" stroke="none" 
	d="
M473.166138,363.004883 
	C486.131653,363.003235 499.097168,363.001617 512.531372,363.000000 
	C513.000000,381.687561 513.000000,400.375122 512.531372,419.531342 
	C499.097504,420.001343 486.132355,420.002686 473.095612,419.539886 
	C473.071411,400.385468 473.118774,381.695190 473.166138,363.004883 
z"/>
<path fill="#20E1B0" opacity="1.000000" stroke="none" 
	d="
M40.832664,151.002563 
	C27.867548,151.001770 14.902431,151.000977 1.468657,151.000092 
	C1.000000,132.979111 1.000000,114.958214 1.468657,96.469101 
	C14.902723,96.001823 27.868134,96.002769 40.900635,96.467766 
	C40.922710,114.955406 40.877689,132.978989 40.832664,151.002563 
z"/>
<path fill="#23E7A8" opacity="1.000000" stroke="none" 
	d="
M513.000000,108.531342 
	C500.027588,109.000366 487.055176,109.000725 473.556396,108.536964 
	C472.742157,91.048935 472.454315,74.025040 472.166443,57.001141 
	C485.465179,57.000839 498.763947,57.000534 512.531372,57.000114 
	C513.000000,74.020897 513.000000,91.041786 513.000000,108.531342 
z"/>
<path fill="#07ACEC" opacity="1.000000" stroke="none" 
	d="
M1.000000,402.468658 
	C13.972407,402.000732 26.944815,402.001495 40.442436,402.467407 
	C40.923027,417.956177 40.878410,432.979736 40.375549,448.002625 
	C26.944876,448.001251 13.972438,448.000610 1.000000,448.000000 
	C1.000000,432.979095 1.000000,417.958221 1.000000,402.468658 
z"/>
<path fill="#23E7A8" opacity="1.000000" stroke="none" 
	d="
M40.833542,96.003708 
	C27.868134,96.002769 14.902723,96.001823 1.468657,96.000443 
	C1.000000,84.979103 1.000000,73.958214 1.000000,62.468658 
	C13.972325,61.999062 26.944651,61.998119 40.442390,62.461586 
	C40.923054,73.951897 40.878300,84.977798 40.833542,96.003708 
z"/>
<path fill="#06AAEF" opacity="1.000000" stroke="none" 
	d="
M473.167175,420.003998 
	C486.132355,420.002686 499.097504,420.001343 512.531372,420.000000 
	C513.000000,430.687561 513.000000,441.375122 512.531372,452.531342 
	C499.002899,452.987000 485.943115,452.973999 472.931458,452.497009 
	C473.042114,441.356659 473.104645,430.680328 473.167175,420.003998 
z"/>
<path fill="#04A6F4" opacity="1.000000" stroke="none" 
	d="
M1.000000,448.466858 
	C13.972438,448.000610 26.944876,448.001251 40.443489,448.426636 
	C41.523235,458.579285 44.174374,467.083862 54.286064,471.027802 
	C56.453739,471.873291 58.791252,472.283295 60.703819,473.128418 
	C58.399033,473.575256 56.441593,473.964600 54.482773,473.971710 
	C40.048302,474.024078 25.613264,473.955963 11.179206,474.049561 
	C9.101296,474.063019 7.027687,474.739532 4.620125,474.911316 
	C3.192103,471.142273 2.096045,467.571136 0.999993,464.000000 
	C1.000000,458.977905 1.000000,453.955811 1.000000,448.466858 
z"/>
<path fill="#04A6F4" opacity="1.000000" stroke="none" 
	d="
M472.883331,452.960999 
	C485.943115,452.973999 499.002899,452.987000 512.531372,453.000000 
	C513.000000,456.361298 513.000000,459.722565 512.643066,463.701660 
	C511.208038,467.914581 510.129944,471.509735 508.704895,474.870605 
	C506.399750,474.424225 504.442230,474.035400 502.483337,474.028290 
	C488.048889,473.975983 473.613922,474.044128 459.179901,473.950439 
	C457.102234,473.936981 455.028870,473.259583 453.166016,472.555054 
	C462.191559,471.896545 467.977234,467.327698 471.176605,459.322540 
	C471.985687,457.298035 472.327026,455.086548 472.883331,452.960999 
z"/>
<path fill="#FFFFFF" opacity="1.000000" stroke="none" 
	d="
M0.999993,464.468658 
	C2.096045,467.571136 3.192103,471.142273 4.650324,475.273041 
	C6.638484,478.904144 8.264483,481.975586 9.943964,485.399597 
	C14.314107,490.536499 18.630768,495.320892 22.947437,500.105286 
	C30.874996,506.322235 39.694122,510.582062 49.839520,512.641357 
	C33.739925,513.000000 17.479853,513.000000 1.000000,513.000000 
	C1.000000,496.979767 1.000000,480.958557 0.999993,464.468658 
z"/>
<path fill="#FFFFFF" opacity="1.000000" stroke="none" 
	d="
M509.051849,475.104858 
	C510.129944,471.509735 511.208038,467.914581 512.643066,464.159729 
	C513.000000,480.260071 513.000000,496.520142 513.000000,513.000000 
	C496.979767,513.000000 480.958557,513.000000 464.468658,513.000000 
	C470.601318,510.344879 477.253204,507.806335 483.777985,504.974915 
	C486.244965,503.904358 488.418396,502.157288 491.195007,500.275848 
	C495.814117,494.903168 499.963898,489.973267 504.423004,484.875427 
	C506.172211,481.506622 507.612030,478.305725 509.051849,475.104858 
z"/>
<path fill="#FFFFFF" opacity="1.000000" stroke="none" 
	d="
M481.052399,7.894959 
	C475.482819,5.830063 469.913239,3.765159 464.171814,1.350128 
	C480.260071,1.000000 496.520142,1.000000 513.000000,1.000000 
	C513.000000,17.020226 513.000000,33.041454 513.000000,49.531342 
	C510.240479,43.104038 507.480957,36.208084 504.361267,28.784056 
	C501.038879,24.823145 498.076599,21.390305 494.968048,17.649956 
	C490.231995,14.193283 485.642212,11.044118 481.052399,7.894959 
z"/>
<path fill="#FFFFFF" opacity="1.000000" stroke="none" 
	d="
M49.531342,1.000001 
	C44.436852,3.093047 38.873699,5.186092 32.770584,7.639315 
	C27.782265,11.318853 23.333916,14.638215 18.583040,18.096403 
	C15.482211,21.809578 12.683908,25.383926 9.885604,28.958275 
	C7.157166,35.857605 4.428727,42.756935 1.350144,49.828133 
	C1.000000,33.739925 1.000000,17.479853 1.000000,1.000000 
	C17.020226,1.000000 33.041454,1.000000 49.531342,1.000001 
z"/>
<path fill="#FFFFFF" opacity="1.000000" stroke="none" 
	d="
M472.931458,452.497009 
	C472.327026,455.086548 471.985687,457.298035 471.176605,459.322540 
	C467.977234,467.327698 462.191559,471.896545 452.702393,472.602051 
	C322.699493,472.989288 193.372696,472.995300 64.045883,472.996399 
	C63.047436,472.996399 62.048985,472.929535 61.050529,472.893890 
	C58.791252,472.283295 56.453739,471.873291 54.286064,471.027802 
	C44.174374,467.083862 41.523235,458.579285 40.901726,448.427338 
	C40.878410,432.979736 40.923027,417.956177 40.900665,402.468384 
	C40.877804,382.313812 40.921925,362.623444 40.899670,342.468811 
	C40.877659,321.313812 40.922020,300.623047 40.900078,279.468018 
	C40.878017,257.979706 40.922260,236.955673 40.900074,215.467300 
	C40.877800,193.979019 40.921959,172.955093 40.899395,151.466858 
	C40.877689,132.978989 40.922710,114.955406 40.900639,96.467766 
	C40.878300,84.977798 40.923054,73.951897 40.900604,62.461197 
	C41.114113,61.587864 41.607738,61.197659 41.644726,60.768139 
	C42.933231,45.804852 53.717411,40.996864 67.160873,40.997288 
	C194.044083,41.001289 320.927307,40.992676 447.810516,41.011818 
	C459.034698,41.013512 467.987457,44.783325 472.089111,56.640472 
	C472.454315,74.025040 472.742157,91.048935 473.098145,108.537277 
	C473.120392,129.025742 473.074493,149.049744 473.097412,169.538147 
	C473.120026,191.026474 473.073822,212.050385 473.097290,233.538574 
	C473.119995,255.360382 473.073029,276.717926 473.096466,298.539734 
	C473.119171,320.028168 473.071472,341.052307 473.094971,362.540649 
	C473.118774,381.695190 473.071411,400.385468 473.095612,419.539886 
	C473.104645,430.680328 473.042114,441.356659 472.931458,452.497009 
M243.338165,302.176483 
	C237.523834,308.767212 231.709503,315.357941 225.286484,322.224152 
	C222.548553,325.200134 219.810623,328.176117 216.989166,331.242920 
	C213.825928,328.287750 210.935349,325.587280 207.773499,322.280212 
	C197.553299,312.839478 187.333099,303.398712 176.830307,293.345245 
	C172.593033,289.216583 168.355759,285.087921 163.824646,280.337128 
	C159.377182,276.218658 154.956863,272.070343 150.474274,267.990448 
	C146.366196,264.251465 142.190933,260.586304 137.773788,256.284210 
	C128.547943,247.397644 119.322098,238.511093 109.700233,229.243073 
	C100.804176,238.795715 92.377495,247.844345 83.332611,257.185760 
	C80.953285,258.990204 82.634003,260.209137 83.961792,261.457184 
	C91.265648,268.322449 98.575577,275.181274 106.169960,282.653259 
	C110.742500,286.782959 115.315041,290.912689 120.172485,295.653717 
	C130.411346,305.451477 140.650208,315.249237 151.173157,325.658630 
	C157.766464,331.809509 164.359787,337.960358 171.225021,344.716248 
	C177.111862,350.158051 182.998688,355.599823 189.169708,361.653687 
	C199.081924,371.144073 208.994125,380.634491 219.246689,390.450745 
	C225.280807,383.929657 231.184036,377.706421 236.895844,371.312225 
	C239.812790,368.046783 242.386459,364.474640 245.721466,360.773193 
	C251.092407,354.848511 256.463348,348.923859 262.134521,342.386383 
	C268.034088,335.924286 273.933685,329.462189 280.134186,322.387085 
	C285.563263,316.545837 290.992340,310.704590 296.907196,304.334442 
	C298.606476,302.386963 300.333344,300.462769 301.999481,298.487366 
	C306.032776,293.705383 310.037781,288.899567 314.666138,283.821564 
	C322.812592,274.897888 330.959015,265.974243 339.701508,256.726349 
	C340.214569,255.903397 340.621552,254.986130 341.256653,254.271652 
	C350.523560,243.846573 359.820984,233.448593 369.720612,222.768646 
	C378.853516,212.525299 387.986420,202.281952 397.733276,191.753082 
	C398.818329,190.338547 399.815308,188.844910 401.002838,187.522400 
	C408.349030,179.341278 415.738098,171.198669 423.727997,162.757416 
	C424.587341,161.571152 425.359741,160.308823 426.320251,159.211060 
	C432.346436,152.323456 432.350098,152.346634 425.854553,146.339630 
	C424.387787,144.983185 423.086914,143.444214 421.593658,142.120071 
	C415.084656,136.348206 408.532837,130.624588 401.888672,124.788689 
	C391.101196,136.983688 380.526154,148.938522 369.334595,161.186249 
	C360.518127,171.109863 351.701630,181.033478 342.272766,191.240753 
	C339.677307,194.163574 337.070740,197.076645 334.488586,200.011154 
	C328.042297,207.337036 321.607086,214.672714 314.866394,222.616562 
	C305.228058,233.375153 295.589691,244.133759 285.337952,255.179306 
	C281.237549,259.611847 277.042511,263.961395 273.063843,268.500610 
	C269.222504,272.883148 265.604340,277.461243 261.282867,282.228363 
	C255.505890,288.781952 249.728912,295.335541 243.338165,302.176483 
z"/>
<path fill="#28F19C" opacity="1.000000" stroke="none" 
	d="
M10.361511,28.967117 
	C12.683908,25.383926 15.482211,21.809578 19.059038,18.105387 
	C178.263153,17.969519 336.688721,17.963495 495.114319,17.957468 
	C498.076599,21.390305 501.038879,24.823145 504.057800,28.607136 
	C339.688751,28.964178 175.263077,28.970070 10.361511,28.967117 
z"/>
<path fill="#02A2F9" opacity="1.000000" stroke="none" 
	d="
M504.113647,485.043365 
	C499.963898,489.973267 495.814117,494.903168 491.356750,499.971008 
	C489.131500,499.739410 487.213898,499.046906 485.296143,499.046265 
	C333.044128,498.996307 180.792084,498.998535 28.540071,499.026947 
	C26.907146,499.027252 25.274296,499.424561 23.294418,499.870911 
	C18.630768,495.320892 14.314107,490.536499 10.336020,485.237366 
	C12.642712,484.481964 14.610788,484.031006 16.578957,484.030579 
	C176.810257,483.997986 337.041565,483.996155 497.272858,484.043701 
	C499.553223,484.044403 501.833374,484.695709 504.113647,485.043365 
z"/>
<path fill="#29F39A" opacity="1.000000" stroke="none" 
	d="
M494.968048,17.649960 
	C336.688721,17.963495 178.263153,17.969519 19.361563,17.966560 
	C23.333916,14.638215 27.782265,11.318853 32.590900,7.945249 
	C34.868813,8.260531 36.786324,8.952920 38.704075,8.953581 
	C184.289230,9.003759 329.874420,9.001509 475.459595,8.973010 
	C477.092529,8.972691 478.725372,8.575500 480.705322,8.129264 
	C485.642212,11.044118 490.231995,14.193283 494.968048,17.649960 
z"/>
<path fill="#03A4F7" opacity="1.000000" stroke="none" 
	d="
M504.423004,484.875427 
	C501.833374,484.695709 499.553223,484.044403 497.272858,484.043701 
	C337.041565,483.996155 176.810257,483.997986 16.578957,484.030579 
	C14.610788,484.031006 12.642712,484.481964 10.282537,484.884857 
	C8.264483,481.975586 6.638484,478.904144 4.982286,475.470947 
	C7.027687,474.739532 9.101296,474.063019 11.179206,474.049561 
	C25.613264,473.955963 40.048302,474.024078 54.482773,473.971710 
	C56.441593,473.964600 58.399033,473.575256 60.703823,473.128418 
	C62.048985,472.929535 63.047436,472.996399 64.045883,472.996399 
	C193.372696,472.995300 322.699493,472.989288 452.489929,472.936462 
	C455.028870,473.259583 457.102234,473.936981 459.179901,473.950439 
	C473.613922,474.044128 488.048889,473.975983 502.483337,474.028290 
	C504.442230,474.035400 506.399750,474.424225 508.704895,474.870605 
	C507.612030,478.305725 506.172211,481.506622 504.423004,484.875427 
z"/>
<path fill="#0FBDD9" opacity="1.000000" stroke="none" 
	d="
M279.833282,323.000092 
	C273.933685,329.462189 268.034088,335.924286 261.526398,342.692932 
	C233.174057,342.999634 205.429779,342.974243 177.685745,343.048096 
	C175.440613,343.054077 173.197266,343.740814 170.953094,344.111237 
	C164.359787,337.960358 157.766464,331.809509 151.423279,325.190491 
	C153.798386,324.481628 155.922531,324.041199 158.048477,324.032257 
	C172.639984,323.970764 187.232147,324.043427 201.823318,323.949890 
	C203.899323,323.936584 205.971054,323.257660 208.044769,322.886810 
	C210.935349,325.587280 213.825928,328.287750 216.989166,331.242920 
	C219.810623,328.176117 222.548553,325.200134 225.982239,322.249695 
	C228.803604,322.516693 230.928467,322.959259 233.054962,322.967407 
	C248.647552,323.027161 264.240479,322.999908 279.833282,323.000092 
z"/>
<path fill="#16CBC9" opacity="1.000000" stroke="none" 
	d="
M285.951355,254.892365 
	C295.589691,244.133759 305.228058,233.375153 315.474792,222.309601 
	C331.325623,222.002075 346.568390,221.955719 361.810303,222.047592 
	C364.245819,222.062286 366.677612,222.696396 369.111115,223.044144 
	C359.820984,233.448593 350.523560,243.846573 341.256653,254.271652 
	C340.621552,254.986130 340.214569,255.903397 339.011993,256.725281 
	C336.198608,256.482910 334.075684,256.042969 331.950684,256.032684 
	C318.691406,255.968307 305.431366,256.047668 292.172485,255.950348 
	C290.096313,255.935104 288.024933,255.261536 285.951355,254.892365 
z"/>
<path fill="#11C0D5" opacity="1.000000" stroke="none" 
	d="
M207.909134,322.583496 
	C205.971054,323.257660 203.899323,323.936584 201.823318,323.949890 
	C187.232147,324.043427 172.639984,323.970764 158.048477,324.032257 
	C155.922531,324.041199 153.798386,324.481628 151.281235,324.884705 
	C140.650208,315.249237 130.411346,305.451477 120.505798,295.339264 
	C139.597031,294.669220 158.354965,294.313599 177.112900,293.957977 
	C187.333099,303.398712 197.553299,312.839478 207.909134,322.583496 
z"/>
<path fill="#1AD3C0" opacity="1.000000" stroke="none" 
	d="
M369.415863,222.906403 
	C366.677612,222.696396 364.245819,222.062286 361.810303,222.047592 
	C346.568390,221.955719 331.325623,222.002075 315.625305,222.003540 
	C321.607086,214.672714 328.042297,207.337036 334.488586,200.011154 
	C337.070740,197.076645 339.677307,194.163574 343.005798,191.139694 
	C347.039734,191.359085 350.338684,191.930740 353.641846,191.956604 
	C368.133636,192.070114 382.626709,192.025726 397.119293,192.038605 
	C387.986420,202.281952 378.853516,212.525299 369.415863,222.906403 
z"/>
<path fill="#1BD6BC" opacity="1.000000" stroke="none" 
	d="
M397.426270,191.895844 
	C382.626709,192.025726 368.133636,192.070114 353.641846,191.956604 
	C350.338684,191.930740 347.039734,191.359085 343.312012,190.997864 
	C351.701630,181.033478 360.518127,171.109863 369.989410,161.274475 
	C372.600830,161.574936 374.556702,161.962952 376.514160,161.970993 
	C389.777435,162.025528 403.041412,161.951096 416.304199,162.046890 
	C418.576019,162.063309 420.843445,162.695511 423.112885,163.043274 
	C415.738098,171.198669 408.349030,179.341278 401.002838,187.522400 
	C399.815308,188.844910 398.818329,190.338547 397.426270,191.895844 
z"/>
<path fill="#14C8CC" opacity="1.000000" stroke="none" 
	d="
M285.644653,255.035828 
	C288.024933,255.261536 290.096313,255.935104 292.172485,255.950348 
	C305.431366,256.047668 318.691406,255.968307 331.950684,256.032684 
	C334.075684,256.042969 336.198608,256.482910 338.713989,256.887390 
	C330.959015,265.974243 322.812592,274.897888 314.012817,283.728394 
	C311.402863,283.423126 309.446930,283.035645 307.489441,283.027313 
	C294.558350,282.972198 281.626495,283.048553 268.695892,282.951447 
	C266.424255,282.934418 264.157288,282.301758 261.888153,281.953430 
	C265.604340,277.461243 269.222504,272.883148 273.063843,268.500610 
	C277.042511,263.961395 281.237549,259.611847 285.644653,255.035828 
z"/>
<path fill="#14C8CC" opacity="1.000000" stroke="none" 
	d="
M105.883423,282.042297 
	C98.575577,275.181274 91.265648,268.322449 83.961792,261.457184 
	C82.634003,260.209137 80.953285,258.990204 83.988235,257.274109 
	C85.440491,257.562683 86.236671,257.935516 87.033821,257.937592 
	C102.792160,257.978912 118.550720,258.002045 134.308853,257.936981 
	C135.555756,257.931824 136.799866,257.253906 138.045273,256.888611 
	C142.190933,260.586304 146.366196,264.251465 150.474274,267.990448 
	C154.956863,272.070343 159.377182,276.218658 163.495392,280.656647 
	C147.028885,280.983887 130.891312,280.940033 114.754723,281.046204 
	C111.795563,281.065643 108.840424,281.694641 105.883423,282.042297 
z"/>
<path fill="#0EBADC" opacity="1.000000" stroke="none" 
	d="
M171.089050,344.413757 
	C173.197266,343.740814 175.440613,343.054077 177.685745,343.048096 
	C205.429779,342.974243 233.174057,342.999634 261.376282,342.999329 
	C256.463348,348.923859 251.092407,354.848511 244.984680,360.888641 
	C239.318832,360.669403 234.385757,360.003967 229.461456,360.063416 
	C215.934189,360.226776 202.410583,360.694427 188.885529,361.041626 
	C182.998688,355.599823 177.111862,350.158051 171.089050,344.413757 
z"/>
<path fill="#1FDEB3" opacity="1.000000" stroke="none" 
	d="
M423.420441,162.900330 
	C420.843445,162.695511 418.576019,162.063309 416.304199,162.046890 
	C403.041412,161.951096 389.777435,162.025528 376.514160,161.970993 
	C374.556702,161.962952 372.600830,161.574936 370.297668,161.128036 
	C380.526154,148.938522 391.101196,136.983688 401.888672,124.788689 
	C408.532837,130.624588 415.084656,136.348206 421.593658,142.120071 
	C423.086914,143.444214 424.387787,144.983185 425.854553,146.339630 
	C432.350098,152.346634 432.346436,152.323456 426.320251,159.211060 
	C425.359741,160.308823 424.587341,161.571152 423.420441,162.900330 
z"/>
<path fill="#13C4D0" opacity="1.000000" stroke="none" 
	d="
M261.585510,282.090881 
	C264.157288,282.301758 266.424255,282.934418 268.695892,282.951447 
	C281.626495,283.048553 294.558350,282.972198 307.489441,283.027313 
	C309.446930,283.035645 311.402863,283.423126 313.706848,283.869324 
	C310.037781,288.899567 306.032776,293.705383 301.999481,298.487366 
	C300.333344,300.462769 298.606476,302.386963 296.347107,304.260071 
	C293.718140,303.790283 291.651855,303.069092 289.579956,303.052582 
	C276.450562,302.947845 263.319550,303.047272 250.190063,302.949036 
	C248.108170,302.933472 246.031189,302.258972 243.951935,301.889130 
	C249.728912,295.335541 255.505890,288.781952 261.585510,282.090881 
z"/>
<path fill="#11C0D5" opacity="1.000000" stroke="none" 
	d="
M243.645050,302.032806 
	C246.031189,302.258972 248.108170,302.933472 250.190063,302.949036 
	C263.319550,303.047272 276.450562,302.947845 289.579956,303.052582 
	C291.651855,303.069092 293.718140,303.790283 296.104218,304.524475 
	C290.992340,310.704590 285.563263,316.545837 279.983734,322.693604 
	C264.240479,322.999908 248.647552,323.027161 233.054962,322.967407 
	C230.928467,322.959259 228.803604,322.516693 226.286575,322.111938 
	C231.709503,315.357941 237.523834,308.767212 243.645050,302.032806 
z"/>
<path fill="#0BB6E2" opacity="1.000000" stroke="none" 
	d="
M189.027618,361.347656 
	C202.410583,360.694427 215.934189,360.226776 229.461456,360.063416 
	C234.385757,360.003967 239.318832,360.669403 244.681580,361.022614 
	C242.386459,364.474640 239.812790,368.046783 236.895844,371.312225 
	C231.184036,377.706421 225.280807,383.929657 219.246689,390.450745 
	C208.994125,380.634491 199.081924,371.144073 189.027618,361.347656 
z"/>
<path fill="#13C4D0" opacity="1.000000" stroke="none" 
	d="
M106.026688,282.347778 
	C108.840424,281.694641 111.795563,281.065643 114.754723,281.046204 
	C130.891312,280.940033 147.028885,280.983887 163.642303,280.967712 
	C168.355759,285.087921 172.593033,289.216583 176.971603,293.651611 
	C158.354965,294.313599 139.597031,294.669220 120.363342,295.033630 
	C115.315041,290.912689 110.742500,286.782959 106.026688,282.347778 
z"/>
<path fill="#16CBC9" opacity="1.000000" stroke="none" 
	d="
M137.909531,256.586426 
	C136.799866,257.253906 135.555756,257.931824 134.308853,257.936981 
	C118.550720,258.002045 102.792160,257.978912 87.033821,257.937592 
	C86.236671,257.935516 85.440491,257.562683 84.297333,257.127716 
	C92.377495,247.844345 100.804176,238.795715 109.700233,229.243073 
	C119.322098,238.511093 128.547943,247.397644 137.909531,256.586426 
z"/>
</svg>