<svg version="1.1" id="Layer_1" xmlns="http://www.w3.org/2000/svg" xmlns:xlink="http://www.w3.org/1999/xlink" x="0px" y="0px"
	 width="100%" viewBox="0 0 1242 1260" enable-background="new 0 0 1242 1260" xml:space="preserve">
<path fill="#A1B8C1" opacity="1.000000" stroke="none" 
	d="
M69.000000,1261.000000 
	C46.335751,1261.000000 23.671503,1261.000000 1.005441,1261.000000 
	C1.003628,841.047241 1.003628,421.094452 1.003628,1.070844 
	C414.908600,1.070844 828.817200,1.070844 1242.862915,1.070844 
	C1242.862915,420.999969 1242.862915,841.000000 1242.862915,1261.000000 
	C1219.911133,1261.000000 1196.913452,1261.000000 1173.395752,1260.569824 
	C1172.061401,1254.719482 1171.623413,1249.208374 1170.341797,1243.901123 
	C1168.558228,1236.516113 1166.359009,1229.211060 1163.942749,1222.004150 
	C1160.961426,1213.112183 1158.110352,1204.110229 1154.208374,1195.612549 
	C1150.494507,1187.524536 1145.964844,1179.708374 1140.955200,1172.343262 
	C1134.169800,1162.367432 1127.139648,1152.450073 1119.210693,1143.385864 
	C1107.651001,1130.170898 1093.678223,1119.670532 1078.178833,1111.350952 
	C1070.306274,1107.125000 1062.427368,1102.829590 1054.229492,1099.316895 
	C1047.587402,1096.470703 1040.500610,1094.624878 1033.546021,1092.553833 
	C1022.780884,1089.348145 1012.068298,1085.859863 1001.137573,1083.342163 
	C985.623352,1079.769043 969.931091,1076.968628 954.314880,1073.838135 
	C943.397339,1071.649780 932.513489,1069.271118 921.552368,1067.328735 
	C911.260437,1065.504883 900.853210,1064.333740 890.558472,1062.523926 
	C879.772095,1060.627686 869.048401,1058.366333 858.316772,1056.169189 
	C843.710876,1053.178955 828.908813,1050.862793 814.588501,1046.841553 
	C800.194092,1042.799561 785.954956,1037.764038 772.319885,1031.661865 
	C766.337769,1028.984497 760.964661,1023.300842 757.168335,1017.721313 
	C748.764893,1005.370422 745.346802,990.858582 742.886475,976.322693 
	C741.421570,967.667542 742.089050,958.617004 740.292297,950.060425 
	C737.506958,936.796387 739.952454,923.870728 741.005859,910.822571 
	C741.112915,909.496338 742.173523,908.074890 743.142151,907.019226 
	C748.317322,901.379395 754.044434,896.188354 758.759094,890.195801 
	C768.286316,878.086243 777.859619,865.939514 786.326233,853.091248 
	C793.576233,842.089233 799.567627,830.220764 805.628601,818.484009 
	C810.338379,809.363831 814.809326,800.044739 818.354004,790.433411 
	C819.898193,786.246216 822.120178,784.809753 825.822998,783.645569 
	C830.072083,782.309570 834.339111,780.718445 838.209351,778.545288 
	C853.334717,770.052124 856.420715,754.075134 861.524231,739.563293 
	C863.975830,732.592163 864.948669,725.107239 866.700439,717.881409 
	C867.790161,713.386597 868.666931,708.773804 870.378296,704.510620 
	C873.431152,696.905640 877.410522,689.665405 880.330383,682.016113 
	C884.103577,672.131409 887.970581,662.176331 890.438904,651.924500 
	C894.164978,636.448975 895.923645,620.516602 888.573242,605.578552 
	C883.747925,595.772278 876.721252,587.626831 864.629089,586.102417 
	C858.475220,585.326599 856.546204,583.301208 857.074707,578.981201 
	C858.685120,565.818481 860.350708,552.662537 861.959717,539.499634 
	C864.177246,521.359070 866.311157,503.167145 864.789978,484.882751 
	C863.182678,465.563232 861.173401,446.264374 858.768738,427.027863 
	C856.585205,409.560760 852.551880,392.414551 846.196106,375.976532 
	C839.820984,359.488647 833.775879,342.747589 825.749878,327.056732 
	C816.554260,309.079163 805.206482,292.325287 792.199951,276.612976 
	C776.096619,257.159393 757.582703,241.028275 735.491638,228.863235 
	C727.173340,224.282593 718.549500,221.475784 708.958923,222.184967 
	C703.725891,222.571930 699.310120,224.610977 697.865234,229.865662 
	C696.221375,235.844254 694.890442,242.022278 694.434326,248.188400 
	C693.688599,258.271179 689.359009,266.243286 681.892029,272.652435 
	C675.326050,278.288330 667.974060,282.404419 659.529785,284.907745 
	C649.900635,287.762207 640.703430,292.105072 631.040466,294.806274 
	C618.643921,298.271576 605.946594,300.647583 593.422363,303.672943 
	C579.415833,307.056335 565.490417,310.777557 551.470520,314.102203 
	C535.556885,317.875916 519.886902,322.271423 505.164825,329.600037 
	C496.187256,334.069122 486.950989,338.040802 478.115051,342.767090 
	C463.608826,350.526398 450.116913,359.906433 438.464355,371.531372 
	C430.625000,379.352173 423.117676,387.662842 416.539734,396.552002 
	C407.995056,408.099060 400.046204,420.158386 395.849396,434.218903 
	C394.546936,438.582520 392.455139,442.704193 390.967468,447.020294 
	C388.656525,453.724762 385.804016,460.363068 384.532532,467.277893 
	C382.467712,478.507233 380.610199,489.911072 380.268951,501.289337 
	C379.746643,518.703735 380.238220,536.174561 381.012726,553.589722 
	C381.349548,561.163269 383.488403,568.652832 384.751678,576.190125 
	C386.022827,583.774597 385.356842,584.643799 377.765961,586.077087 
	C375.330322,586.536926 372.552704,586.573547 370.571716,587.820679 
	C360.209503,594.344055 352.777313,603.336365 350.308411,615.537903 
	C346.040741,636.629395 351.812347,656.344910 359.457764,675.682739 
	C362.609833,683.655334 366.168732,691.468018 369.279510,699.455811 
	C371.129486,704.206238 372.549286,709.131592 374.016144,714.022156 
	C376.141510,721.108154 377.955994,728.291504 380.227295,735.328735 
	C383.354858,745.019165 385.977997,754.992126 390.292023,764.149353 
	C395.564026,775.340027 405.506714,781.276794 417.568420,783.918457 
	C419.549225,784.352234 421.754364,786.432373 422.713501,788.329285 
	C425.021759,792.894348 426.363403,797.943298 428.613525,802.543396 
	C434.202301,813.968811 439.874939,825.363464 445.908051,836.558044 
	C450.753876,845.549683 455.351196,854.863403 461.521973,862.912476 
	C473.229614,878.183960 486.010498,892.631287 498.266968,907.485779 
	C499.472534,908.947021 500.948792,910.872192 500.920166,912.558594 
	C500.618042,930.353149 500.881775,948.220154 499.265686,965.909729 
	C497.945374,980.362061 494.463470,994.691711 488.323822,1008.033447 
	C485.500519,1014.168640 482.048737,1020.139465 478.065918,1025.588379 
	C471.227478,1034.943848 459.714539,1036.255249 449.886810,1039.932617 
	C439.099854,1043.968872 427.631805,1046.263062 416.369446,1048.931763 
	C401.208710,1052.524170 386.005768,1055.971191 370.736145,1059.061523 
	C358.374725,1061.563110 345.890808,1063.461914 333.455994,1065.597534 
	C322.337677,1067.506958 311.205231,1069.334595 300.092194,1071.273560 
	C291.743500,1072.730225 283.381195,1074.140747 275.087585,1075.871826 
	C265.678741,1077.835693 256.343353,1080.150024 246.969101,1082.281616 
	C239.393509,1084.004272 231.630737,1085.131104 224.264297,1087.497559 
	C210.319748,1091.977295 196.537811,1096.989502 182.803848,1102.091431 
	C167.927246,1107.617920 154.401123,1115.823608 142.202286,1125.765869 
	C125.654694,1139.252319 111.477211,1154.874146 100.060555,1173.270996 
	C91.125092,1187.669556 84.433395,1202.877197 79.068016,1218.669678 
	C74.408432,1232.384644 70.179855,1246.376099 69.000000,1261.000000 
z"/>
<path fill="#A1B8C1" opacity="1.000000" stroke="none" 
	d="
M1151.000000,1261.000000 
	C797.969116,1261.000000 444.938171,1261.000000 91.478149,1260.617432 
	C92.205551,1254.723999 93.083397,1249.135620 94.589546,1243.722046 
	C96.444000,1237.056763 98.631958,1230.467285 101.023125,1223.972900 
	C103.848015,1216.300659 106.650276,1208.575073 110.197189,1201.227173 
	C113.341637,1194.713013 117.292976,1188.554443 121.257820,1182.480225 
	C124.877159,1176.935669 128.605621,1171.371704 132.984146,1166.435547 
	C138.816666,1159.860229 144.790939,1153.203125 151.668869,1147.811401 
	C161.819977,1139.853882 172.187256,1131.716309 183.628510,1125.981689 
	C196.382675,1119.588867 210.204422,1114.951294 223.992935,1111.090210 
	C241.837067,1106.093506 260.027039,1102.213501 278.216095,1098.597046 
	C300.360596,1094.194336 322.680206,1090.679932 344.883881,1086.564453 
	C361.671082,1083.453125 378.401093,1080.030640 395.145355,1076.690552 
	C404.720825,1074.780518 414.289764,1072.831421 423.831421,1070.760620 
	C429.983154,1069.425659 436.199738,1068.209229 442.175446,1066.282715 
	C453.156464,1062.742798 464.204041,1059.238159 474.788971,1054.703735 
	C481.338593,1051.897949 488.306396,1048.314697 492.939209,1043.153198 
	C502.586975,1032.404297 509.450806,1019.630249 512.852234,1005.376526 
	C516.346313,990.734558 520.862122,976.160583 522.469971,961.290771 
	C524.305908,944.311951 523.990906,927.020264 523.409119,909.905334 
	C523.215271,904.200562 520.433411,897.751526 516.868591,893.173706 
	C510.270782,884.701294 501.905396,877.631348 494.874939,869.462036 
	C488.613098,862.185791 482.634979,854.547729 477.486420,846.461426 
	C471.310455,836.761475 466.208588,826.381958 460.529114,816.360474 
	C452.652222,802.461609 446.450409,787.875549 441.779144,772.593994 
	C439.262878,764.362244 434.533905,759.386292 426.078613,760.841492 
	C417.829559,762.261169 410.809906,758.025879 408.151276,750.066833 
	C403.757660,736.913696 400.061646,723.526428 396.128906,710.220886 
	C394.258209,703.891846 392.978516,697.347839 390.625427,691.210144 
	C385.674530,678.296448 379.766510,665.740540 375.066040,652.743164 
	C371.498169,642.877625 370.084991,632.491577 372.304657,621.928894 
	C374.773895,610.178589 381.755280,605.322083 393.590607,606.478760 
	C397.636993,606.874146 401.936493,606.313293 405.914764,605.344788 
	C410.536011,604.219788 412.754517,598.557312 411.478363,591.345642 
	C410.441620,585.487305 408.286346,579.816284 407.389465,573.945801 
	C405.009491,558.366882 401.591064,542.756226 401.252655,527.100586 
	C400.751770,503.928314 402.631134,480.714905 410.675629,458.545776 
	C413.825165,449.866333 416.042175,440.664062 420.432983,432.659302 
	C428.646851,417.684875 437.835205,403.160004 450.694611,391.524658 
	C457.449097,385.413116 464.270386,379.324463 471.512085,373.817963 
	C477.564972,369.215454 484.026550,365.005890 490.752228,361.468384 
	C499.648743,356.789093 508.832397,352.569061 518.162476,348.823883 
	C528.419006,344.706879 538.858459,340.939240 549.445557,337.781372 
	C560.399231,334.514160 571.618591,332.132568 582.735107,329.418121 
	C591.753784,327.215912 600.794312,325.103546 609.821228,322.934937 
	C621.742188,320.071045 633.898438,317.921997 645.513916,314.122009 
	C658.311462,309.935333 670.933960,304.892212 683.048523,299.017517 
	C699.615967,290.983521 711.346558,278.395630 714.996216,259.545441 
	C715.657166,256.131805 716.863464,252.827255 717.688843,249.440857 
	C718.330933,246.806320 719.361389,245.548416 722.191711,247.190109 
	C727.065002,250.016724 732.323242,252.268784 736.904724,255.493805 
	C756.002197,268.936981 771.578979,286.015320 785.430847,304.605927 
	C792.030029,313.462677 797.564392,323.146851 803.174988,332.694916 
	C807.277893,339.677277 811.126465,346.871979 814.344727,354.294464 
	C817.925049,362.552307 820.867432,371.107330 823.715271,379.656982 
	C827.365356,390.615204 831.273438,401.549866 833.899048,412.768799 
	C836.344727,423.218445 837.616882,433.988953 838.751831,444.687592 
	C840.238770,458.704285 842.007202,472.791321 841.972656,486.843964 
	C841.929016,504.575989 840.605164,522.340393 839.049683,540.021851 
	C837.814758,554.060486 835.496643,568.009521 833.454529,581.968323 
	C832.810669,586.369263 831.173645,590.627686 830.566833,595.030640 
	C829.130859,605.450439 835.625671,611.675171 844.042297,608.819763 
	C848.287354,607.379639 853.170898,606.491150 857.536316,607.073425 
	C862.964355,607.797363 866.986084,611.719543 869.078186,616.984741 
	C873.455383,628.000732 871.219421,639.252258 868.340637,649.852966 
	C865.423706,660.594360 860.009094,670.642578 855.924072,681.086548 
	C852.609985,689.559326 849.288025,698.058533 846.608398,706.743164 
	C842.514648,720.010742 839.186462,733.513916 835.125488,746.792419 
	C831.941101,757.204590 826.252014,761.464478 815.490540,760.935242 
	C807.690857,760.551636 803.751953,764.618286 801.171936,770.848877 
	C798.960327,776.189636 797.707214,781.948792 795.280579,787.174744 
	C788.872925,800.973999 782.635986,814.907166 775.223145,828.167603 
	C769.275208,838.807434 762.201843,848.925659 754.721558,858.572571 
	C746.402893,869.300842 737.078186,879.250977 728.144348,889.498840 
	C725.987793,891.972534 723.318787,894.055298 721.452454,896.715637 
	C716.293457,904.069458 717.760376,912.869324 717.481812,920.962463 
	C716.825073,940.040161 717.184204,959.063965 720.762939,978.076599 
	C723.516174,992.703674 727.371887,1006.708862 733.048889,1020.424927 
	C741.654846,1041.217407 758.526672,1051.923340 778.472656,1059.106079 
	C784.363770,1061.227539 790.464172,1062.793335 796.517090,1064.435059 
	C809.438293,1067.939941 822.284546,1071.824219 835.358765,1074.635376 
	C851.071411,1078.013794 866.995056,1080.405884 882.816589,1083.284058 
	C900.288452,1086.462158 917.759399,1089.647461 935.210083,1092.939453 
	C953.139343,1096.321533 971.254761,1099.008911 988.901978,1103.515015 
	C1008.250305,1108.455322 1027.053589,1115.493286 1046.294678,1120.905029 
	C1057.633301,1124.093994 1067.119629,1130.333984 1076.267944,1137.075195 
	C1085.448242,1143.840210 1094.225342,1151.275879 1102.461792,1159.166382 
	C1112.180054,1168.476685 1120.474854,1179.074463 1126.301392,1191.374268 
	C1131.087769,1201.478149 1136.728027,1211.290405 1140.372925,1221.793091 
	C1144.801514,1234.554443 1147.533813,1247.904541 1151.000000,1261.000000 
z"/>
<path fill="#DDECF5" opacity="1.000000" stroke="none" 
	d="
M1151.468506,1261.000000 
	C1147.533813,1247.904541 1144.801514,1234.554443 1140.372925,1221.793091 
	C1136.728027,1211.290405 1131.087769,1201.478149 1126.301392,1191.374268 
	C1120.474854,1179.074463 1112.180054,1168.476685 1102.461792,1159.166382 
	C1094.225342,1151.275879 1085.448242,1143.840210 1076.267944,1137.075195 
	C1067.119629,1130.333984 1057.633301,1124.093994 1046.294678,1120.905029 
	C1027.053589,1115.493286 1008.250305,1108.455322 988.901978,1103.515015 
	C971.254761,1099.008911 953.139343,1096.321533 935.210083,1092.939453 
	C917.759399,1089.647461 900.288452,1086.462158 882.816589,1083.284058 
	C866.995056,1080.405884 851.071411,1078.013794 835.358765,1074.635376 
	C822.284546,1071.824219 809.438293,1067.939941 796.517090,1064.435059 
	C790.464172,1062.793335 784.363770,1061.227539 778.472656,1059.106079 
	C758.526672,1051.923340 741.654846,1041.217407 733.048889,1020.424927 
	C727.371887,1006.708862 723.516174,992.703674 720.762939,978.076599 
	C717.184204,959.063965 716.825073,940.040161 717.481812,920.962463 
	C717.760376,912.869324 716.293457,904.069458 721.452454,896.715637 
	C723.318787,894.055298 725.987793,891.972534 728.144348,889.498840 
	C737.078186,879.250977 746.402893,869.300842 754.721558,858.572571 
	C762.201843,848.925659 769.275208,838.807434 775.223145,828.167603 
	C782.635986,814.907166 788.872925,800.973999 795.280579,787.174744 
	C797.707214,781.948792 798.960327,776.189636 801.171936,770.848877 
	C803.751953,764.618286 807.690857,760.551636 815.490540,760.935242 
	C826.252014,761.464478 831.941101,757.204590 835.125488,746.792419 
	C839.186462,733.513916 842.514648,720.010742 846.608398,706.743164 
	C849.288025,698.058533 852.609985,689.559326 855.924072,681.086548 
	C860.009094,670.642578 865.423706,660.594360 868.340637,649.852966 
	C871.219421,639.252258 873.455383,628.000732 869.078186,616.984741 
	C866.986084,611.719543 862.964355,607.797363 857.536316,607.073425 
	C853.170898,606.491150 848.287354,607.379639 844.042297,608.819763 
	C835.625671,611.675171 829.130859,605.450439 830.566833,595.030640 
	C831.173645,590.627686 832.810669,586.369263 833.454529,581.968323 
	C835.496643,568.009521 837.814758,554.060486 839.049683,540.021851 
	C840.605164,522.340393 841.929016,504.575989 841.972656,486.843964 
	C842.007202,472.791321 840.238770,458.704285 838.751831,444.687592 
	C837.616882,433.988953 836.344727,423.218445 833.899048,412.768799 
	C831.273438,401.549866 827.365356,390.615204 823.715271,379.656982 
	C820.867432,371.107330 817.925049,362.552307 814.344727,354.294464 
	C811.126465,346.871979 807.277893,339.677277 803.174988,332.694916 
	C797.564392,323.146851 792.030029,313.462677 785.430847,304.605927 
	C771.578979,286.015320 756.002197,268.936981 736.904724,255.493805 
	C732.323242,252.268784 727.065002,250.016724 722.191711,247.190109 
	C719.361389,245.548416 718.330933,246.806320 717.688843,249.440857 
	C716.863464,252.827255 715.657166,256.131805 714.996216,259.545441 
	C711.346558,278.395630 699.615967,290.983521 683.048523,299.017517 
	C670.933960,304.892212 658.311462,309.935333 645.513916,314.122009 
	C633.898438,317.921997 621.742188,320.071045 609.821228,322.934937 
	C600.794312,325.103546 591.753784,327.215912 582.735107,329.418121 
	C571.618591,332.132568 560.399231,334.514160 549.445557,337.781372 
	C538.858459,340.939240 528.419006,344.706879 518.162476,348.823883 
	C508.832397,352.569061 499.648743,356.789093 490.752228,361.468384 
	C484.026550,365.005890 477.564972,369.215454 471.512085,373.817963 
	C464.270386,379.324463 457.449097,385.413116 450.694611,391.524658 
	C437.835205,403.160004 428.646851,417.684875 420.432983,432.659302 
	C416.042175,440.664062 413.825165,449.866333 410.675629,458.545776 
	C402.631134,480.714905 400.751770,503.928314 401.252655,527.100586 
	C401.591064,542.756226 405.009491,558.366882 407.389465,573.945801 
	C408.286346,579.816284 410.441620,585.487305 411.478363,591.345642 
	C412.754517,598.557312 410.536011,604.219788 405.914764,605.344788 
	C401.936493,606.313293 397.636993,606.874146 393.590607,606.478760 
	C381.755280,605.322083 374.773895,610.178589 372.304657,621.928894 
	C370.084991,632.491577 371.498169,642.877625 375.066040,652.743164 
	C379.766510,665.740540 385.674530,678.296448 390.625427,691.210144 
	C392.978516,697.347839 394.258209,703.891846 396.128906,710.220886 
	C400.061646,723.526428 403.757660,736.913696 408.151276,750.066833 
	C410.809906,758.025879 417.829559,762.261169 426.078613,760.841492 
	C434.533905,759.386292 439.262878,764.362244 441.779144,772.593994 
	C446.450409,787.875549 452.652222,802.461609 460.529114,816.360474 
	C466.208588,826.381958 471.310455,836.761475 477.486420,846.461426 
	C482.634979,854.547729 488.613098,862.185791 494.874939,869.462036 
	C501.905396,877.631348 510.270782,884.701294 516.868591,893.173706 
	C520.433411,897.751526 523.215271,904.200562 523.409119,909.905334 
	C523.990906,927.020264 524.305908,944.311951 522.469971,961.290771 
	C520.862122,976.160583 516.346313,990.734558 512.852234,1005.376526 
	C509.450806,1019.630249 502.586975,1032.404297 492.939209,1043.153198 
	C488.306396,1048.314697 481.338593,1051.897949 474.788971,1054.703735 
	C464.204041,1059.238159 453.156464,1062.742798 442.175446,1066.282715 
	C436.199738,1068.209229 429.983154,1069.425659 423.831421,1070.760620 
	C414.289764,1072.831421 404.720825,1074.780518 395.145355,1076.690552 
	C378.401093,1080.030640 361.671082,1083.453125 344.883881,1086.564453 
	C322.680206,1090.679932 300.360596,1094.194336 278.216095,1098.597046 
	C260.027039,1102.213501 241.837067,1106.093506 223.992935,1111.090210 
	C210.204422,1114.951294 196.382675,1119.588867 183.628510,1125.981689 
	C172.187256,1131.716309 161.819977,1139.853882 151.668869,1147.811401 
	C144.790939,1153.203125 138.816666,1159.860229 132.984146,1166.435547 
	C128.605621,1171.371704 124.877159,1176.935669 121.257820,1182.480225 
	C117.292976,1188.554443 113.341637,1194.713013 110.197189,1201.227173 
	C106.650276,1208.575073 103.848015,1216.300659 101.023125,1223.972900 
	C98.631958,1230.467285 96.444000,1237.056763 94.589546,1243.722046 
	C93.083397,1249.135620 92.205551,1254.723999 91.024521,1260.617432 
	C83.979050,1261.000000 76.958107,1261.000000 69.468582,1261.000000 
	C70.179855,1246.376099 74.408432,1232.384644 79.068016,1218.669678 
	C84.433395,1202.877197 91.125092,1187.669556 100.060555,1173.270996 
	C111.477211,1154.874146 125.654694,1139.252319 142.202286,1125.765869 
	C154.401123,1115.823608 167.927246,1107.617920 182.803848,1102.091431 
	C196.537811,1096.989502 210.319748,1091.977295 224.264297,1087.497559 
	C231.630737,1085.131104 239.393509,1084.004272 246.969101,1082.281616 
	C256.343353,1080.150024 265.678741,1077.835693 275.087585,1075.871826 
	C283.381195,1074.140747 291.743500,1072.730225 300.092194,1071.273560 
	C311.205231,1069.334595 322.337677,1067.506958 333.455994,1065.597534 
	C345.890808,1063.461914 358.374725,1061.563110 370.736145,1059.061523 
	C386.005768,1055.971191 401.208710,1052.524170 416.369446,1048.931763 
	C427.631805,1046.263062 439.099854,1043.968872 449.886810,1039.932617 
	C459.714539,1036.255249 471.227478,1034.943848 478.065918,1025.588379 
	C482.048737,1020.139465 485.500519,1014.168640 488.323822,1008.033447 
	C494.463470,994.691711 497.945374,980.362061 499.265686,965.909729 
	C500.881775,948.220154 500.618042,930.353149 500.920166,912.558594 
	C500.948792,910.872192 499.472534,908.947021 498.266968,907.485779 
	C486.010498,892.631287 473.229614,878.183960 461.521973,862.912476 
	C455.351196,854.863403 450.753876,845.549683 445.908051,836.558044 
	C439.874939,825.363464 434.202301,813.968811 428.613525,802.543396 
	C426.363403,797.943298 425.021759,792.894348 422.713501,788.329285 
	C421.754364,786.432373 419.549225,784.352234 417.568420,783.918457 
	C405.506714,781.276794 395.564026,775.340027 390.292023,764.149353 
	C385.977997,754.992126 383.354858,745.019165 380.227295,735.328735 
	C377.955994,728.291504 376.141510,721.108154 374.016144,714.022156 
	C372.549286,709.131592 371.129486,704.206238 369.279510,699.455811 
	C366.168732,691.468018 362.609833,683.655334 359.457764,675.682739 
	C351.812347,656.344910 346.040741,636.629395 350.308411,615.537903 
	C352.777313,603.336365 360.209503,594.344055 370.571716,587.820679 
	C372.552704,586.573547 375.330322,586.536926 377.765961,586.077087 
	C385.356842,584.643799 386.022827,583.774597 384.751678,576.190125 
	C383.488403,568.652832 381.349548,561.163269 381.012726,553.589722 
	C380.238220,536.174561 379.746643,518.703735 380.268951,501.289337 
	C380.610199,489.911072 382.467712,478.507233 384.532532,467.277893 
	C385.804016,460.363068 388.656525,453.724762 390.967468,447.020294 
	C392.455139,442.704193 394.546936,438.582520 395.849396,434.218903 
	C400.046204,420.158386 407.995056,408.099060 416.539734,396.552002 
	C423.117676,387.662842 430.625000,379.352173 438.464355,371.531372 
	C450.116913,359.906433 463.608826,350.526398 478.115051,342.767090 
	C486.950989,338.040802 496.187256,334.069122 505.164825,329.600037 
	C519.886902,322.271423 535.556885,317.875916 551.470520,314.102203 
	C565.490417,310.777557 579.415833,307.056335 593.422363,303.672943 
	C605.946594,300.647583 618.643921,298.271576 631.040466,294.806274 
	C640.703430,292.105072 649.900635,287.762207 659.529785,284.907745 
	C667.974060,282.404419 675.326050,278.288330 681.892029,272.652435 
	C689.359009,266.243286 693.688599,258.271179 694.434326,248.188400 
	C694.890442,242.022278 696.221375,235.844254 697.865234,229.865662 
	C699.310120,224.610977 703.725891,222.571930 708.958923,222.184967 
	C718.549500,221.475784 727.173340,224.282593 735.491638,228.863235 
	C757.582703,241.028275 776.096619,257.159393 792.199951,276.612976 
	C805.206482,292.325287 816.554260,309.079163 825.749878,327.056732 
	C833.775879,342.747589 839.820984,359.488647 846.196106,375.976532 
	C852.551880,392.414551 856.585205,409.560760 858.768738,427.027863 
	C861.173401,446.264374 863.182678,465.563232 864.789978,484.882751 
	C866.311157,503.167145 864.177246,521.359070 861.959717,539.499634 
	C860.350708,552.662537 858.685120,565.818481 857.074707,578.981201 
	C856.546204,583.301208 858.475220,585.326599 864.629089,586.102417 
	C876.721252,587.626831 883.747925,595.772278 888.573242,605.578552 
	C895.923645,620.516602 894.164978,636.448975 890.438904,651.924500 
	C887.970581,662.176331 884.103577,672.131409 880.330383,682.016113 
	C877.410522,689.665405 873.431152,696.905640 870.378296,704.510620 
	C868.666931,708.773804 867.790161,713.386597 866.700439,717.881409 
	C864.948669,725.107239 863.975830,732.592163 861.524231,739.563293 
	C856.420715,754.075134 853.334717,770.052124 838.209351,778.545288 
	C834.339111,780.718445 830.072083,782.309570 825.822998,783.645569 
	C822.120178,784.809753 819.898193,786.246216 818.354004,790.433411 
	C814.809326,800.044739 810.338379,809.363831 805.628601,818.484009 
	C799.567627,830.220764 793.576233,842.089233 786.326233,853.091248 
	C777.859619,865.939514 768.286316,878.086243 758.759094,890.195801 
	C754.044434,896.188354 748.317322,901.379395 743.142151,907.019226 
	C742.173523,908.074890 741.112915,909.496338 741.005859,910.822571 
	C739.952454,923.870728 737.506958,936.796387 740.292297,950.060425 
	C742.089050,958.617004 741.421570,967.667542 742.886475,976.322693 
	C745.346802,990.858582 748.764893,1005.370422 757.168335,1017.721313 
	C760.964661,1023.300842 766.337769,1028.984497 772.319885,1031.661865 
	C785.954956,1037.764038 800.194092,1042.799561 814.588501,1046.841553 
	C828.908813,1050.862793 843.710876,1053.178955 858.316772,1056.169189 
	C869.048401,1058.366333 879.772095,1060.627686 890.558472,1062.523926 
	C900.853210,1064.333740 911.260437,1065.504883 921.552368,1067.328735 
	C932.513489,1069.271118 943.397339,1071.649780 954.314880,1073.838135 
	C969.931091,1076.968628 985.623352,1079.769043 1001.137573,1083.342163 
	C1012.068298,1085.859863 1022.780884,1089.348145 1033.546021,1092.553833 
	C1040.500610,1094.624878 1047.587402,1096.470703 1054.229492,1099.316895 
	C1062.427368,1102.829590 1070.306274,1107.125000 1078.178833,1111.350952 
	C1093.678223,1119.670532 1107.651001,1130.170898 1119.210693,1143.385864 
	C1127.139648,1152.450073 1134.169800,1162.367432 1140.955200,1172.343262 
	C1145.964844,1179.708374 1150.494507,1187.524536 1154.208374,1195.612549 
	C1158.110352,1204.110229 1160.961426,1213.112183 1163.942749,1222.004150 
	C1166.359009,1229.211060 1168.558228,1236.516113 1170.341797,1243.901123 
	C1171.623413,1249.208374 1172.061401,1254.719482 1172.937744,1260.569824 
	C1165.979004,1261.000000 1158.958130,1261.000000 1151.468506,1261.000000 
z"/>
</svg>